<svg xmlns="http://www.w3.org/2000/svg" xmlns:xlink="http://www.w3.org/1999/xlink" width="500" zoomAndPan="magnify" viewBox="0 0 375 374.999991" height="500" preserveAspectRatio="xMidYMid meet" version="1.0"><defs><clipPath id="7f4eef4618"><path d="M 0 5.859375 L 364 5.859375 L 364 368.859375 L 0 368.859375 Z M 0 5.859375 " clip-rule="nonzero"/></clipPath><clipPath id="95e528b128"><path d="M 298.699219 253.425781 L 374.910156 253.425781 L 374.910156 330 L 298.699219 330 Z M 298.699219 253.425781 " clip-rule="nonzero"/></clipPath></defs><path fill="#000000" d="M 17.578125 225.734375 L 346.355469 225.734375 C 348.273438 214.554688 351.410156 194.765625 351.410156 187.359375 C 351.410156 179.953125 348.273438 160.164062 346.355469 148.984375 L 17.578125 148.984375 L 12.800781 187.359375 Z M 355.984375 237.222656 L 7.417969 237.222656 L 1.214844 187.359375 L 7.417969 137.496094 L 355.984375 137.496094 L 356.839844 142.21875 C 357.085938 143.59375 362.90625 175.945312 362.90625 187.359375 C 362.90625 198.773438 357.085938 231.125 356.839844 232.5 L 355.984375 237.222656 " fill-opacity="1" fill-rule="nonzero"/><path fill="#000000" d="M 148.507812 165.195312 L 135.648438 213.628906 L 123.152344 213.628906 L 116.371094 186.910156 L 109.96875 213.628906 L 96.9375 213.628906 L 84.0625 165.195312 L 98.058594 165.195312 L 104.839844 193.070312 L 111.453125 165.195312 L 123.132812 165.195312 L 130.328125 193.125 L 137.121094 165.195312 L 148.507812 165.195312 " fill-opacity="1" fill-rule="nonzero"/><path fill="#000000" d="M 213.949219 165.195312 L 201.089844 213.628906 L 188.59375 213.628906 L 181.8125 186.910156 L 175.410156 213.628906 L 162.378906 213.628906 L 149.5 165.195312 L 163.5 165.195312 L 170.28125 193.070312 L 176.894531 165.195312 L 188.574219 165.195312 L 195.769531 193.125 L 202.558594 165.195312 L 213.949219 165.195312 " fill-opacity="1" fill-rule="nonzero"/><path fill="#000000" d="M 279.386719 165.195312 L 266.53125 213.628906 L 254.035156 213.628906 L 247.253906 186.910156 L 240.851562 213.628906 L 227.816406 213.628906 L 214.941406 165.195312 L 228.941406 165.195312 L 235.71875 193.070312 L 242.335938 165.195312 L 254.015625 165.195312 L 261.207031 193.125 L 268 165.195312 L 279.386719 165.195312 " fill-opacity="1" fill-rule="nonzero"/><path fill="#000000" d="M 56.890625 280.402344 C 64.375 276.378906 80.765625 268.527344 104.699219 262.300781 C 102.257812 252.464844 100.332031 242.136719 98.902344 231.476562 L 32.339844 231.476562 C 37.621094 249.320312 46 265.847656 56.890625 280.402344 " fill-opacity="1" fill-rule="nonzero"/><path fill="#000000" d="M 186.5625 109.074219 L 186.5625 143.242188 L 248.628906 143.242188 C 246.742188 129.421875 244.03125 116.589844 240.625 104.96875 C 221.109375 107.382812 203.027344 108.632812 186.5625 109.074219 " fill-opacity="1" fill-rule="nonzero"/><path fill="#000000" d="M 172.585938 109.261719 C 153.117188 109.261719 136.269531 108.15625 122.382812 106.65625 C 121.789062 106.59375 121.214844 106.523438 120.625 106.457031 C 117.421875 117.683594 114.855469 130.003906 113.050781 143.242188 L 175.128906 143.242188 L 175.128906 109.253906 C 174.28125 109.257812 173.429688 109.261719 172.585938 109.261719 " fill-opacity="1" fill-rule="nonzero"/><path fill="#000000" d="M 57.40625 93.640625 C 46.265625 108.359375 37.707031 125.121094 32.339844 143.242188 L 98.894531 143.242188 C 100.707031 129.746094 103.332031 116.792969 106.753906 104.675781 C 81.484375 100.980469 64.710938 96.0625 57.40625 93.640625 " fill-opacity="1" fill-rule="nonzero"/><path fill="#000000" d="M 118.226562 259.15625 C 120.246094 258.742188 122.292969 258.335938 124.394531 257.953125 C 140.941406 254.941406 157.914062 253.410156 175.128906 253.367188 L 175.128906 231.476562 L 113.058594 231.476562 C 114.386719 241.222656 116.113281 250.484375 118.226562 259.15625 " fill-opacity="1" fill-rule="nonzero"/><path fill="#000000" d="M 119.246094 303.550781 C 114.792969 294.308594 110.9375 284.167969 107.710938 273.339844 C 86.8125 278.789062 71.875 285.566406 64.234375 289.480469 C 84.796875 313.074219 112.34375 330.429688 143.617188 338.316406 C 134.535156 329.84375 126.289062 318.160156 119.246094 303.550781 " fill-opacity="1" fill-rule="nonzero"/><path fill="#000000" d="M 242.441406 303.550781 C 235.238281 318.503906 226.769531 330.382812 217.433594 338.902344 C 249.421875 331.375 277.632812 313.972656 298.664062 290.101562 C 282.996094 283.714844 267.898438 278.789062 253.46875 275.050781 C 250.351562 285.242188 246.664062 294.796875 242.441406 303.550781 " fill-opacity="1" fill-rule="nonzero"/><path fill="#000000" d="M 121.199219 270.214844 C 133.492188 311.847656 154.351562 338.289062 175.128906 342.449219 L 175.128906 264.863281 C 156.65625 264.882812 140.480469 266.667969 127.023438 269.089844 C 125.039062 269.445312 123.105469 269.824219 121.199219 270.214844 " fill-opacity="1" fill-rule="nonzero"/><path fill="#000000" d="M 186.5625 265.074219 L 186.5625 342.449219 C 207.0625 338.347656 227.644531 312.546875 240 271.863281 C 220.789062 267.734375 202.890625 265.695312 186.5625 265.074219 " fill-opacity="1" fill-rule="nonzero"/><path fill="#000000" d="M 186.5625 32.269531 L 186.5625 97.640625 C 201.992188 97.21875 218.867188 96.078125 237.066406 93.890625 C 224.535156 58.394531 205.511719 36.0625 186.5625 32.269531 " fill-opacity="1" fill-rule="nonzero"/><path fill="#000000" d="M 119.246094 71.167969 C 126.289062 56.558594 134.535156 44.875 143.617188 36.402344 C 112.84375 44.160156 85.691406 61.09375 65.234375 84.105469 C 73.734375 86.65625 89.003906 90.605469 110.167969 93.613281 C 112.84375 85.679688 115.875 78.164062 119.246094 71.167969 " fill-opacity="1" fill-rule="nonzero"/><path fill="#000000" d="M 124.148438 95.351562 C 138.160156 96.847656 155.285156 97.925781 175.128906 97.824219 L 175.128906 32.269531 C 155.917969 36.113281 136.636719 59.011719 124.121094 95.351562 C 124.128906 95.351562 124.136719 95.351562 124.148438 95.351562 " fill-opacity="1" fill-rule="nonzero"/><path fill="#000000" d="M 186.5625 253.5625 C 192.960938 253.792969 199.382812 254.214844 205.824219 254.855469 C 218.175781 256.074219 230.605469 258.066406 243.0625 260.785156 C 245.355469 251.640625 247.226562 241.832031 248.636719 231.476562 L 186.5625 231.476562 L 186.5625 253.5625 " fill-opacity="1" fill-rule="nonzero"/><path fill="#000000" d="M 254.488281 103.082031 C 258.132812 115.652344 260.898438 129.15625 262.785156 143.242188 L 331.105469 143.242188 C 325.695312 124.972656 317.039062 108.085938 305.765625 93.28125 C 287.824219 97.484375 270.703125 100.6875 254.488281 103.082031 " fill-opacity="1" fill-rule="nonzero"/><path fill="#000000" d="M 242.441406 71.167969 C 245.59375 77.703125 248.441406 84.691406 250.984375 92.050781 C 265.765625 89.910156 281.328125 87.082031 297.605469 83.425781 C 276.691406 60.167969 248.886719 43.214844 217.433594 35.816406 C 226.769531 44.335938 235.238281 56.21875 242.441406 71.167969 " fill-opacity="1" fill-rule="nonzero"/><path fill="#000000" d="M 256.558594 264.019531 C 270.171875 267.566406 283.800781 272.019531 297.390625 277.316406 L 282.648438 237.667969 L 323.097656 252.683594 C 326.261719 245.863281 328.945312 238.785156 331.109375 231.476562 L 262.796875 231.476562 C 261.28125 242.761719 259.203125 253.667969 256.558594 264.019531 " fill-opacity="1" fill-rule="nonzero"/><g clip-path="url(#7f4eef4618)"><path fill="#000000" d="M 181.722656 5.859375 C 81.566406 5.859375 0.0820312 87.277344 0.0820312 187.359375 C 0.0820312 287.441406 81.566406 368.859375 181.722656 368.859375 C 232.375 368.859375 278.238281 348.03125 311.214844 314.503906 L 305.867188 300.117188 C 275.140625 333.859375 230.867188 355.074219 181.722656 355.074219 C 104.457031 355.074219 39.253906 302.613281 19.8125 231.476562 C 15.972656 217.410156 13.878906 202.628906 13.878906 187.359375 C 13.878906 172.089844 15.972656 157.308594 19.8125 143.242188 C 39.253906 72.105469 104.457031 19.644531 181.722656 19.644531 C 258.992188 19.644531 324.195312 72.105469 343.632812 143.242188 C 347.476562 157.308594 349.566406 172.089844 349.566406 187.359375 C 349.566406 202.628906 347.476562 217.410156 343.632812 231.476562 C 341.234375 240.253906 338.136719 248.738281 334.40625 256.882812 L 347.414062 261.710938 C 357.65625 239.007812 363.363281 213.835938 363.363281 187.359375 C 363.363281 87.277344 281.882812 5.859375 181.722656 5.859375 " fill-opacity="1" fill-rule="nonzero"/></g><g clip-path="url(#95e528b128)"><path fill="#000000" d="M 374.90625 320.5 L 346.777344 292.390625 L 368.898438 279.878906 L 298.882812 253.890625 L 324.894531 323.851562 L 337.414062 301.75 L 365.542969 329.855469 L 374.90625 320.5 " fill-opacity="1" fill-rule="nonzero"/></g></svg>