<svg xmlns="http://www.w3.org/2000/svg" xmlns:xlink="http://www.w3.org/1999/xlink" width="500" zoomAndPan="magnify" viewBox="0 0 375 374.999991" height="500" preserveAspectRatio="xMidYMid meet" version="1.0"><path fill="#1cf611" d="M 375 187.5 C 375 190.570312 374.925781 193.636719 374.773438 196.699219 C 374.625 199.765625 374.398438 202.824219 374.097656 205.878906 C 373.796875 208.933594 373.421875 211.976562 372.96875 215.011719 C 372.519531 218.046875 371.996094 221.070312 371.398438 224.078125 C 370.796875 227.089844 370.125 230.082031 369.378906 233.058594 C 368.636719 236.035156 367.816406 238.992188 366.925781 241.929688 C 366.035156 244.863281 365.074219 247.777344 364.039062 250.667969 C 363.003906 253.554688 361.902344 256.417969 360.726562 259.253906 C 359.554688 262.089844 358.308594 264.890625 356.996094 267.667969 C 355.6875 270.441406 354.304688 273.179688 352.859375 275.886719 C 351.414062 278.59375 349.902344 281.261719 348.324219 283.894531 C 346.746094 286.527344 345.105469 289.117188 343.402344 291.667969 C 341.695312 294.222656 339.929688 296.730469 338.101562 299.195312 C 336.273438 301.660156 334.386719 304.078125 332.4375 306.449219 C 330.492188 308.820312 328.488281 311.144531 326.429688 313.417969 C 324.367188 315.691406 322.253906 317.914062 320.082031 320.082031 C 317.914062 322.253906 315.691406 324.367188 313.417969 326.429688 C 311.144531 328.488281 308.820312 330.492188 306.449219 332.4375 C 304.078125 334.386719 301.660156 336.273438 299.195312 338.101562 C 296.730469 339.929688 294.222656 341.695312 291.667969 343.402344 C 289.117188 345.105469 286.527344 346.746094 283.894531 348.324219 C 281.261719 349.902344 278.59375 351.414062 275.886719 352.859375 C 273.179688 354.308594 270.441406 355.6875 267.667969 356.996094 C 264.890625 358.308594 262.089844 359.554688 259.253906 360.726562 C 256.417969 361.902344 253.554688 363.003906 250.667969 364.039062 C 247.777344 365.074219 244.863281 366.035156 241.929688 366.925781 C 238.992188 367.816406 236.035156 368.636719 233.058594 369.378906 C 230.082031 370.125 227.089844 370.796875 224.078125 371.398438 C 221.070312 371.996094 218.046875 372.519531 215.011719 372.96875 C 211.976562 373.421875 208.933594 373.796875 205.878906 374.097656 C 202.824219 374.398438 199.765625 374.625 196.699219 374.773438 C 193.636719 374.925781 190.570312 375 187.5 375 C 184.429688 375 181.363281 374.925781 178.300781 374.773438 C 175.234375 374.625 172.175781 374.398438 169.121094 374.097656 C 166.066406 373.796875 163.023438 373.421875 159.988281 372.96875 C 156.953125 372.519531 153.929688 371.996094 150.921875 371.398438 C 147.910156 370.796875 144.917969 370.125 141.941406 369.378906 C 138.964844 368.636719 136.007812 367.816406 133.070312 366.925781 C 130.136719 366.035156 127.222656 365.074219 124.332031 364.039062 C 121.445312 363.003906 118.582031 361.902344 115.746094 360.726562 C 112.910156 359.554688 110.105469 358.308594 107.332031 356.996094 C 104.558594 355.6875 101.820312 354.308594 99.113281 352.859375 C 96.40625 351.414062 93.738281 349.902344 91.105469 348.324219 C 88.472656 346.746094 85.882812 345.105469 83.332031 343.402344 C 80.777344 341.695312 78.269531 339.929688 75.804688 338.101562 C 73.339844 336.273438 70.921875 334.386719 68.550781 332.4375 C 66.179688 330.492188 63.855469 328.488281 61.582031 326.429688 C 59.308594 324.367188 57.085938 322.253906 54.917969 320.082031 C 52.746094 317.914062 50.632812 315.691406 48.570312 313.417969 C 46.511719 311.144531 44.507812 308.820312 42.558594 306.449219 C 40.613281 304.078125 38.726562 301.660156 36.898438 299.195312 C 35.070312 296.730469 33.304688 294.222656 31.597656 291.667969 C 29.894531 289.117188 28.253906 286.527344 26.675781 283.894531 C 25.097656 281.261719 23.585938 278.59375 22.140625 275.886719 C 20.691406 273.179688 19.3125 270.441406 18.003906 267.667969 C 16.691406 264.890625 15.445312 262.089844 14.273438 259.253906 C 13.097656 256.417969 11.996094 253.554688 10.960938 250.667969 C 9.925781 247.777344 8.964844 244.863281 8.074219 241.929688 C 7.183594 238.992188 6.363281 236.035156 5.617188 233.058594 C 4.875 230.082031 4.203125 227.089844 3.601562 224.078125 C 3.003906 221.070312 2.480469 218.046875 2.03125 215.011719 C 1.578125 211.976562 1.203125 208.933594 0.902344 205.878906 C 0.601562 202.824219 0.375 199.765625 0.226562 196.699219 C 0.0742188 193.636719 0 190.570312 0 187.5 C 0 184.429688 0.0742188 181.363281 0.226562 178.300781 C 0.375 175.234375 0.601562 172.175781 0.902344 169.121094 C 1.203125 166.066406 1.578125 163.023438 2.03125 159.988281 C 2.480469 156.953125 3.003906 153.929688 3.601562 150.921875 C 4.203125 147.910156 4.875 144.917969 5.617188 141.941406 C 6.363281 138.964844 7.183594 136.007812 8.074219 133.070312 C 8.964844 130.136719 9.925781 127.222656 10.960938 124.332031 C 11.996094 121.445312 13.097656 118.582031 14.273438 115.746094 C 15.445312 112.910156 16.691406 110.105469 18.003906 107.332031 C 19.3125 104.558594 20.691406 101.820312 22.140625 99.113281 C 23.585938 96.40625 25.097656 93.738281 26.675781 91.105469 C 28.253906 88.472656 29.894531 85.882812 31.597656 83.332031 C 33.304688 80.777344 35.070312 78.269531 36.898438 75.804688 C 38.726562 73.339844 40.613281 70.921875 42.558594 68.550781 C 44.507812 66.179688 46.511719 63.855469 48.570312 61.582031 C 50.632812 59.308594 52.746094 57.085938 54.917969 54.917969 C 57.085938 52.746094 59.308594 50.632812 61.582031 48.570312 C 63.855469 46.511719 66.179688 44.507812 68.550781 42.558594 C 70.921875 40.613281 73.339844 38.726562 75.804688 36.898438 C 78.269531 35.070312 80.777344 33.304688 83.332031 31.597656 C 85.882812 29.894531 88.472656 28.253906 91.105469 26.675781 C 93.738281 25.097656 96.40625 23.585938 99.113281 22.140625 C 101.820312 20.691406 104.558594 19.3125 107.332031 18.003906 C 110.105469 16.691406 112.910156 15.445312 115.746094 14.273438 C 118.582031 13.097656 121.445312 11.996094 124.332031 10.960938 C 127.222656 9.925781 130.136719 8.964844 133.070312 8.074219 C 136.007812 7.183594 138.964844 6.363281 141.941406 5.617188 C 144.917969 4.875 147.910156 4.203125 150.921875 3.601562 C 153.929688 3.003906 156.953125 2.480469 159.988281 2.03125 C 163.023438 1.578125 166.066406 1.203125 169.121094 0.902344 C 172.175781 0.601562 175.234375 0.375 178.300781 0.226562 C 181.363281 0.0742188 184.429688 0 187.5 0 C 190.570312 0 193.636719 0.0742188 196.699219 0.226562 C 199.765625 0.375 202.824219 0.601562 205.878906 0.902344 C 208.933594 1.203125 211.976562 1.578125 215.011719 2.03125 C 218.046875 2.480469 221.070312 3.003906 224.078125 3.601562 C 227.089844 4.203125 230.082031 4.875 233.058594 5.617188 C 236.035156 6.363281 238.992188 7.183594 241.929688 8.074219 C 244.863281 8.964844 247.777344 9.925781 250.667969 10.960938 C 253.554688 11.996094 256.417969 13.097656 259.253906 14.273438 C 262.089844 15.445312 264.890625 16.691406 267.667969 18.003906 C 270.441406 19.3125 273.179688 20.691406 275.886719 22.140625 C 278.59375 23.585938 281.261719 25.097656 283.894531 26.675781 C 286.527344 28.253906 289.117188 29.894531 291.667969 31.597656 C 294.222656 33.304688 296.730469 35.070312 299.195312 36.898438 C 301.660156 38.726562 304.078125 40.613281 306.449219 42.558594 C 308.820312 44.507812 311.144531 46.511719 313.417969 48.570312 C 315.691406 50.632812 317.914062 52.746094 320.082031 54.917969 C 322.253906 57.085938 324.367188 59.308594 326.429688 61.582031 C 328.488281 63.855469 330.492188 66.179688 332.4375 68.550781 C 334.386719 70.921875 336.273438 73.339844 338.101562 75.804688 C 339.929688 78.269531 341.695312 80.777344 343.402344 83.332031 C 345.105469 85.882812 346.746094 88.472656 348.324219 91.105469 C 349.902344 93.738281 351.414062 96.40625 352.859375 99.113281 C 354.304688 101.820312 355.6875 104.558594 356.996094 107.332031 C 358.308594 110.105469 359.554688 112.910156 360.726562 115.746094 C 361.902344 118.582031 363.003906 121.445312 364.039062 124.332031 C 365.074219 127.222656 366.035156 130.136719 366.925781 133.070312 C 367.816406 136.007812 368.636719 138.964844 369.378906 141.941406 C 370.125 144.917969 370.796875 147.910156 371.398438 150.921875 C 371.996094 153.929688 372.519531 156.953125 372.96875 159.988281 C 373.421875 163.023438 373.796875 166.066406 374.097656 169.121094 C 374.398438 172.175781 374.625 175.234375 374.773438 178.300781 C 374.925781 181.363281 375 184.429688 375 187.5 Z M 375 187.5 " fill-opacity="1" fill-rule="nonzero"/><path fill="#ffffff" d="M 241.339844 229.113281 L 236.667969 235.851562 C 235.976562 236.851562 235.15625 237.726562 234.207031 238.484375 C 233.253906 239.242188 232.214844 239.847656 231.085938 240.300781 C 229.960938 240.753906 228.789062 241.035156 227.578125 241.144531 C 226.367188 241.253906 225.167969 241.183594 223.976562 240.941406 C 163.949219 228.710938 150.898438 173.046875 148.0625 150.035156 C 147.976562 149.34375 147.949219 148.648438 147.980469 147.949219 C 148.011719 147.25 148.101562 146.5625 148.25 145.878906 C 148.398438 145.195312 148.601562 144.53125 148.863281 143.882812 C 149.125 143.234375 149.4375 142.613281 149.800781 142.015625 C 150.167969 141.421875 150.582031 140.859375 151.042969 140.335938 C 151.503906 139.808594 152.003906 139.324219 152.546875 138.886719 C 153.089844 138.445312 153.667969 138.050781 154.273438 137.707031 C 154.882812 137.363281 155.515625 137.074219 156.175781 136.835938 L 164.3125 133.910156 C 164.75 133.753906 165.199219 133.621094 165.652344 133.511719 C 166.445312 133.324219 167.25 133.214844 168.066406 133.1875 C 168.878906 133.15625 169.691406 133.207031 170.496094 133.335938 C 171.300781 133.464844 172.082031 133.671875 172.847656 133.957031 C 173.609375 134.242188 174.339844 134.597656 175.035156 135.023438 C 175.726562 135.453125 176.371094 135.941406 176.96875 136.496094 C 177.566406 137.050781 178.101562 137.660156 178.578125 138.320312 C 179.058594 138.980469 179.464844 139.679688 179.804688 140.421875 C 180.144531 141.160156 180.40625 141.925781 180.59375 142.71875 L 184.121094 157.597656 C 184.339844 158.515625 184.449219 159.445312 184.457031 160.390625 C 184.460938 161.332031 184.359375 162.265625 184.148438 163.1875 C 183.941406 164.105469 183.628906 164.992188 183.21875 165.84375 C 182.808594 166.691406 182.308594 167.484375 181.714844 168.21875 L 179.074219 171.5 C 178.292969 172.472656 177.671875 173.539062 177.210938 174.699219 C 176.753906 175.855469 176.472656 177.058594 176.375 178.300781 C 176.277344 179.542969 176.367188 180.773438 176.636719 181.992188 C 176.910156 183.207031 177.355469 184.359375 177.976562 185.441406 C 183.460938 195.097656 191.914062 202.066406 198.15625 206.265625 C 198.707031 206.636719 199.285156 206.957031 199.886719 207.234375 C 200.492188 207.511719 201.113281 207.738281 201.75 207.914062 C 202.390625 208.09375 203.042969 208.21875 203.699219 208.289062 C 204.359375 208.363281 205.023438 208.382812 205.683594 208.347656 C 206.347656 208.316406 207.003906 208.230469 207.652344 208.089844 C 208.300781 207.953125 208.9375 207.761719 209.554688 207.523438 C 210.171875 207.28125 210.769531 206.992188 211.339844 206.65625 C 211.914062 206.320312 212.453125 205.941406 212.964844 205.519531 C 213.480469 205.09375 214.027344 204.714844 214.601562 204.375 C 215.179688 204.039062 215.777344 203.75 216.402344 203.511719 C 217.023438 203.269531 217.660156 203.082031 218.316406 202.945312 C 218.96875 202.808594 219.628906 202.722656 220.296875 202.691406 C 220.960938 202.664062 221.628906 202.683594 222.292969 202.761719 C 222.953125 202.835938 223.605469 202.964844 224.25 203.148438 C 224.890625 203.328125 225.515625 203.5625 226.121094 203.84375 C 226.726562 204.125 227.304688 204.453125 227.855469 204.828125 L 238.117188 211.808594 L 238.199219 211.863281 C 238.867188 212.324219 239.488281 212.851562 240.054688 213.433594 C 240.621094 214.019531 241.125 214.65625 241.566406 215.339844 C 242.007812 216.023438 242.378906 216.746094 242.675781 217.5 C 242.976562 218.257812 243.199219 219.039062 243.34375 219.839844 C 243.488281 220.640625 243.554688 221.445312 243.542969 222.261719 C 243.53125 223.074219 243.4375 223.878906 243.265625 224.675781 C 243.09375 225.472656 242.84375 226.242188 242.519531 226.988281 C 242.195312 227.734375 241.800781 228.445312 241.339844 229.113281 Z M 241.339844 229.113281 " fill-opacity="1" fill-rule="nonzero"/><path fill="#ffffff" d="M 201.355469 72.863281 C 133.757812 69.617188 77.867188 125.601562 81.3125 193.105469 C 81.757812 201.9375 83.210938 210.597656 85.671875 219.085938 C 88.136719 227.578125 91.542969 235.671875 95.898438 243.371094 C 96.46875 244.386719 96.839844 245.472656 97.011719 246.625 C 97.179688 247.78125 97.132812 248.925781 96.875 250.0625 L 87.886719 289.691406 C 86.625 295.261719 92.027344 300.027344 97.40625 298.082031 L 131.0625 285.925781 C 132.371094 285.457031 133.714844 285.28125 135.097656 285.402344 C 136.480469 285.527344 137.777344 285.933594 138.980469 286.625 C 160.382812 298.84375 186.117188 304.363281 213.308594 300.332031 C 263.273438 292.929688 302.425781 253.265625 309.25 203.28125 C 318.589844 134.832031 267.273438 76.03125 201.355469 72.863281 Z M 208.671875 277.429688 C 148.175781 285.71875 97.101562 234.707031 105.398438 174.285156 C 110.914062 134.132812 142.640625 102.445312 182.839844 96.9375 C 243.339844 88.648438 294.410156 139.660156 286.113281 200.085938 C 280.597656 240.234375 248.871094 271.921875 208.671875 277.429688 Z M 208.671875 277.429688 " fill-opacity="1" fill-rule="nonzero"/></svg>